<?xml version="1.0" standalone="no"?>
<!DOCTYPE svg PUBLIC "-//W3C//DTD SVG 20010904//EN"
 "http://www.w3.org/TR/2001/REC-SVG-20010904/DTD/svg10.dtd">
<svg version="1.0" xmlns="http://www.w3.org/2000/svg"
 width="1024.000000pt" height="1024.000000pt" viewBox="0 0 1024.000000 1024.000000"
 preserveAspectRatio="xMidYMid meet">
<metadata>
Created by potrace 1.11, written by Peter Selinger 2001-2013
</metadata>
<g transform="translate(0.000000,1024.000000) scale(0.100000,-0.100000)"
fill="#000000" stroke="none">
<path d="M600 5531 l0 -4468 568 1 567 1 2 4468 3 4467 -570 0 -570 0 0 -4469z"/>
<path d="M2520 8660 c0 -737 0 -2314 0 -3505 0 -1191 0 -2599 0 -3128 l0 -964
568 1 567 1 2 4468 2 4467 -569 0 -570 0 0 -1340z"/>
<path d="M4440 5531 l0 -4468 568 1 567 1 2 4468 2 4467 -569 0 -570 0 0
-4469z"/>
<path d="M6360 5532 l0 -4469 568 1 567 1 2 4468 3 4467 -570 0 -570 0 0
-4468z"/>
<path d="M8280 6171 l0 -3829 68 27 c160 65 322 96 507 95 185 0 353 -30 498
-89 33 -14 62 -25 64 -25 1 0 3 1721 3 3825 l0 3825 -570 0 -570 0 0 -3829z"/>
<path d="M8751 1848 c-410 -48 -718 -417 -698 -836 5 -120 9 -140 39 -232 89
-272 331 -484 611 -537 52 -10 249 -9 297 1 123 25 246 82 340 157 324 258
403 709 188 1071 -52 87 -159 198 -248 256 -62 40 -189 96 -241 106 -13 2 -40
7 -59 10 -57 11 -160 13 -229 4z"/>
</g>
</svg>
