<svg xmlns="http://www.w3.org/2000/svg" viewBox="0 0 61.16 5.01"><defs><style>.cls-1{fill:#003671;}</style></defs><title>Element 3</title><g id="Ebene_2" data-name="Ebene 2"><g id="Ebene_1-2" data-name="Ebene 1"><path class="cls-1" d="M3.74,5a1.45,1.45,0,0,1-.36.5,1.79,1.79,0,0,1-.59.34A2.31,2.31,0,0,1,2,6a2.85,2.85,0,0,1-.82-.11,3.06,3.06,0,0,1-.77-.32L.69,5a4,4,0,0,0,.64.3,2,2,0,0,0,.67.1,1.12,1.12,0,0,0,.7-.2A.7.7,0,0,0,3,4.59a.6.6,0,0,0-.17-.44,1.13,1.13,0,0,0-.55-.28l-.52-.15a2.25,2.25,0,0,1-.56-.23,1.13,1.13,0,0,1-.37-.35,1.2,1.2,0,0,1-.21-.7,1.41,1.41,0,0,1,.12-.59A1.34,1.34,0,0,1,1,1.4a1.46,1.46,0,0,1,.52-.29A2,2,0,0,1,2.22,1,2.74,2.74,0,0,1,3,1.12a2.41,2.41,0,0,1,.72.35L3.39,2a4,4,0,0,0-.6-.29,2,2,0,0,0-.55-.08.9.9,0,0,0-.57.17.58.58,0,0,0-.22.48.49.49,0,0,0,.14.36,1.37,1.37,0,0,0,.5.24l.58.16a2,2,0,0,1,.86.5,1.2,1.2,0,0,1,.33.88A1.43,1.43,0,0,1,3.74,5Z" transform="translate(-0.38 -1)"/><path class="cls-1" d="M6.45,6a2.36,2.36,0,0,1-.72-.11,1.38,1.38,0,0,1-.57-.34A2,2,0,0,1,4.6,4.1a2.19,2.19,0,0,1,.31-1.2,1.68,1.68,0,0,1,.65-.62,1.86,1.86,0,0,1,.91-.22,2,2,0,0,1,.6.08,1.37,1.37,0,0,1,.47.22l-.37.51a1.25,1.25,0,0,0-.68-.2A1,1,0,0,0,6,2.78a1,1,0,0,0-.34.29A1.64,1.64,0,0,0,5.47,4a2.81,2.81,0,0,0,.06.65.93.93,0,0,0,.2.41,1,1,0,0,0,.79.34,1.44,1.44,0,0,0,.37,0,1.47,1.47,0,0,0,.36-.17l.37.46A1.85,1.85,0,0,1,6.45,6Z" transform="translate(-0.38 -1)"/><path class="cls-1" d="M10.49,4.24H9.19V5.92H8.4V2.13h.79V3.61h1.3V2.13h.81V5.92h-.81Z" transform="translate(-0.38 -1)"/><path class="cls-1" d="M15.49,5a1.86,1.86,0,0,1-.05.27,1.24,1.24,0,0,1-.1.2,1.29,1.29,0,0,1-.16.17,1.31,1.31,0,0,1-.45.27A2,2,0,0,1,14,6a2.06,2.06,0,0,1-.85-.15,1.2,1.2,0,0,1-.5-.4,1.09,1.09,0,0,1-.13-.34,2.83,2.83,0,0,1,0-.47V2.13h.8V4.51c0,.14,0,.24,0,.33a.83.83,0,0,0,.05.2.65.65,0,0,0,.64.31.65.65,0,0,0,.54-.2l.06-.1a.37.37,0,0,0,.05-.11l0-.17c0-.06,0-.14,0-.23V2.13h.8V4.61A2.06,2.06,0,0,1,15.49,5Z" transform="translate(-0.38 -1)"/><path class="cls-1" d="M16.73,5.92V2.13h.79V5.28h1.54l-.15.64Z" transform="translate(-0.38 -1)"/><path class="cls-1" d="M22.49,5a1.86,1.86,0,0,1,0,.27,1.24,1.24,0,0,1-.1.2,1.29,1.29,0,0,1-.16.17,1.31,1.31,0,0,1-.45.27A2,2,0,0,1,21,6a2.06,2.06,0,0,1-.85-.15,1.2,1.2,0,0,1-.5-.4,1.09,1.09,0,0,1-.13-.34,2.83,2.83,0,0,1,0-.47V2.13h.8V4.51c0,.14,0,.24,0,.33a.83.83,0,0,0,.05.2.82.82,0,0,0,1.18.11l.06-.1a.37.37,0,0,0,.05-.11l0-.17c0-.06,0-.14,0-.23V2.13h.8V4.61A2.06,2.06,0,0,1,22.49,5Z" transform="translate(-0.38 -1)"/><path class="cls-1" d="M24.91,4.17c-.05-.09-.1-.2-.16-.32s-.11-.23-.16-.34a2.86,2.86,0,0,1-.12-.27l0-.11v.12c0,.08,0,.18,0,.3s0,.24,0,.37v.34l0,1.66h-.76V2.13h.87l.94,1.72q.08.13.15.3c0,.11.1.21.14.31L26,4.8l0-.11c0-.07,0-.17,0-.28s0-.22,0-.34,0-.23,0-.32l0-1.62h.75V5.92h-.82Z" transform="translate(-0.38 -1)"/><path class="cls-1" d="M29.54,6a2.06,2.06,0,0,1-.83-.14,1.6,1.6,0,0,1-.59-.42,1.57,1.57,0,0,1-.36-.59,2.44,2.44,0,0,1-.11-.76,2.21,2.21,0,0,1,.19-1,1.64,1.64,0,0,1,.56-.67,1.88,1.88,0,0,1,1.12-.33,2.12,2.12,0,0,1,1.31.42l-.4.48A2.82,2.82,0,0,0,30,2.76a1.41,1.41,0,0,0-.47-.07,1,1,0,0,0-.53.12.84.84,0,0,0-.31.31,1.25,1.25,0,0,0-.14.45,4.38,4.38,0,0,0,0,.52,2.78,2.78,0,0,0,.05.52,1.14,1.14,0,0,0,.18.42.77.77,0,0,0,.32.27,1.06,1.06,0,0,0,.5.1,1.27,1.27,0,0,0,.28,0l.23-.07V4.44h-.67l-.12-.63h1.59V5.63A2.8,2.8,0,0,1,29.54,6Z" transform="translate(-0.38 -1)"/><path class="cls-1" d="M34.66,5.33a1.21,1.21,0,0,1-.39.39,1.76,1.76,0,0,1-.55.22,3.06,3.06,0,0,1-.59.07,3.14,3.14,0,0,1-1.4-.34l.29-.6a2.68,2.68,0,0,0,.57.22,2.15,2.15,0,0,0,.58.07,1.1,1.1,0,0,0,.25,0,.66.66,0,0,0,.25-.07.56.56,0,0,0,.2-.14.4.4,0,0,0,.07-.24.37.37,0,0,0-.14-.31,1.56,1.56,0,0,0-.46-.2l-.5-.13a1.46,1.46,0,0,1-.68-.37.91.91,0,0,1-.28-.69A1,1,0,0,1,32,2.72a1.36,1.36,0,0,1,.31-.37,1.54,1.54,0,0,1,.46-.24,1.89,1.89,0,0,1,.6-.09,3.38,3.38,0,0,1,.76.1,2.1,2.1,0,0,1,.64.29L34.39,3a2,2,0,0,0-1-.29.77.77,0,0,0-.46.11.36.36,0,0,0-.17.31.33.33,0,0,0,.11.26.89.89,0,0,0,.4.17l.5.13a1.72,1.72,0,0,1,.4.14,1.08,1.08,0,0,1,.34.21,1,1,0,0,1,.31.74A1,1,0,0,1,34.66,5.33Z" transform="translate(-0.38 -1)"/><path class="cls-1" d="M37.53,5h-1.3l-.32.91h-.82l1.41-3.8h.86l1.34,3.8h-.84Zm-1.11-.59h.94L36.9,2.8Z" transform="translate(-0.38 -1)"/><path class="cls-1" d="M40.5,4.17l-.16-.32-.16-.34a2.86,2.86,0,0,1-.12-.27L40,3.13v.12c0,.08,0,.18,0,.3s0,.24,0,.37v.34l0,1.66h-.76V2.13h.87l.94,1.72.15.3c0,.11.1.21.14.31l.15.34,0-.11c0-.07,0-.17,0-.28s0-.22,0-.34,0-.23,0-.32l0-1.62h.75V5.92h-.82Z" transform="translate(-0.38 -1)"/><path class="cls-1" d="M45.12,6a2,2,0,0,1-.82-.14,1.6,1.6,0,0,1-.59-.42,1.45,1.45,0,0,1-.36-.59,2.44,2.44,0,0,1-.11-.76,2.21,2.21,0,0,1,.19-1A1.64,1.64,0,0,1,44,2.41a1.86,1.86,0,0,1,1.12-.33,2.12,2.12,0,0,1,1.31.42L46,3a2.82,2.82,0,0,0-.42-.22,1.43,1.43,0,0,0-.48-.07,1,1,0,0,0-.52.12.84.84,0,0,0-.31.31,1.25,1.25,0,0,0-.14.45,3,3,0,0,0,0,.52,2.78,2.78,0,0,0,0,.52,1.32,1.32,0,0,0,.17.42.87.87,0,0,0,.33.27,1.06,1.06,0,0,0,.5.1,1.27,1.27,0,0,0,.28,0l.23-.07V4.44H45l-.12-.63h1.59V5.63A2.81,2.81,0,0,1,45.12,6Z" transform="translate(-0.38 -1)"/><path class="cls-1" d="M47.63,2.13H50l-.11.63H48.42v.87h1.24v.63H48.43v1h1.64v.66H47.63Z" transform="translate(-0.38 -1)"/><path class="cls-1" d="M53.71,5.42a1,1,0,0,1-.49.38,1.7,1.7,0,0,1-.37.1l-.49,0H51V2.13h1.4a2.61,2.61,0,0,1,.46,0,1.68,1.68,0,0,1,.32.09,1,1,0,0,1,.42.33.84.84,0,0,1,.15.49.8.8,0,0,1-.17.53.85.85,0,0,1-.46.29,1.38,1.38,0,0,1,.57.34.83.83,0,0,1,.24.62A1,1,0,0,1,53.71,5.42ZM52.83,3a.47.47,0,0,0-.15-.13.65.65,0,0,0-.21-.07l-.22,0h-.53v.88h.77a.59.59,0,0,0,.2-.06.35.35,0,0,0,.14-.13.39.39,0,0,0,.05-.23A.41.41,0,0,0,52.83,3Zm.11,1.55a.49.49,0,0,0-.16-.16.63.63,0,0,0-.23-.08l-.25,0h-.57v1h.56a1.14,1.14,0,0,0,.26,0,.88.88,0,0,0,.23-.07A.49.49,0,0,0,52.94,5,.53.53,0,0,0,53,4.78.46.46,0,0,0,52.94,4.53Z" transform="translate(-0.38 -1)"/><path class="cls-1" d="M58.13,4.81a1.82,1.82,0,0,1-.32.62,1.4,1.4,0,0,1-.55.4,1.89,1.89,0,0,1-.79.15,2.05,2.05,0,0,1-.78-.14,1.47,1.47,0,0,1-.57-.4,1.86,1.86,0,0,1-.36-.61A2.47,2.47,0,0,1,54.64,4a2.11,2.11,0,0,1,.47-1.45,1.73,1.73,0,0,1,1.32-.51,2.14,2.14,0,0,1,.79.14,1.63,1.63,0,0,1,.56.4,1.7,1.7,0,0,1,.34.62,2.37,2.37,0,0,1,.11.78A2.8,2.8,0,0,1,58.13,4.81Zm-.82-1.25a1.42,1.42,0,0,0-.12-.44.8.8,0,0,0-.28-.32,1,1,0,0,0-1,0,.76.76,0,0,0-.27.32,1.25,1.25,0,0,0-.13.44c0,.16,0,.32,0,.47s0,.34,0,.51a1.19,1.19,0,0,0,.13.44A.67.67,0,0,0,56,5.3a.9.9,0,0,0,.5.12.73.73,0,0,0,.47-.13A.76.76,0,0,0,57.19,5a1.5,1.5,0,0,0,.12-.44,3.87,3.87,0,0,0,0-.48A4.15,4.15,0,0,0,57.31,3.56Z" transform="translate(-0.38 -1)"/><path class="cls-1" d="M60.38,2.76V5.92h-.79V2.76h-1V2.13h3l-.13.63Z" transform="translate(-0.38 -1)"/></g></g></svg>