<svg xmlns="http://www.w3.org/2000/svg" viewBox="0 0 230.55 19.47"><defs><style>.cls-1{fill:#1e3969;}</style></defs><title>Element 2</title><g id="Ebene_2" data-name="Ebene 2"><g id="Ebene_1-2" data-name="Ebene 1"><path class="cls-1" d="M14.53,19.58a5.69,5.69,0,0,1-1.4,1.93,6.81,6.81,0,0,1-2.3,1.34,9.05,9.05,0,0,1-3.17.5,12.39,12.39,0,0,1-3.2-.42,11.3,11.3,0,0,1-3-1.26l1.2-2.39a16.49,16.49,0,0,0,2.46,1.14,7.87,7.87,0,0,0,2.62.41A4.26,4.26,0,0,0,10.49,20a2.66,2.66,0,0,0,1-2.21,2.38,2.38,0,0,0-.66-1.71A4.91,4.91,0,0,0,8.67,15l-2-.57a9.22,9.22,0,0,1-2.2-.92A4.62,4.62,0,0,1,3,12.21a4.87,4.87,0,0,1-.79-2.75,5.42,5.42,0,0,1,.46-2.27A5,5,0,0,1,4,5.44,6,6,0,0,1,6,4.3a7.69,7.69,0,0,1,2.61-.41,10.9,10.9,0,0,1,3.17.46A10.1,10.1,0,0,1,14.57,5.7L13.16,7.91a13.06,13.06,0,0,0-2.32-1.1,6.51,6.51,0,0,0-2.13-.34,3.44,3.44,0,0,0-2.24.69A2.28,2.28,0,0,0,5.63,9a1.79,1.79,0,0,0,.56,1.39,5,5,0,0,0,2,.92l2.23.65a7.58,7.58,0,0,1,3.34,1.91A4.68,4.68,0,0,1,15,17.33,5.48,5.48,0,0,1,14.53,19.58Z" transform="translate(-1.49 -3.89)"/><path class="cls-1" d="M25.07,23.25a9.23,9.23,0,0,1-2.82-.41,5.5,5.5,0,0,1-2.2-1.34,7.4,7.4,0,0,1-2.19-5.57,8.57,8.57,0,0,1,1.22-4.67A6.55,6.55,0,0,1,21.6,8.85,7.37,7.37,0,0,1,25.15,8a8.57,8.57,0,0,1,2.3.32,5.18,5.18,0,0,1,1.83.85l-1.44,2a4.92,4.92,0,0,0-2.64-.79,3.67,3.67,0,0,0-1.76.43,3.94,3.94,0,0,0-1.34,1.15,6.15,6.15,0,0,0-.84,3.57,12.37,12.37,0,0,0,.2,2.49,3.72,3.72,0,0,0,3.85,2.93,4.93,4.93,0,0,0,1.47-.2,5.68,5.68,0,0,0,1.39-.67l1.44,1.82A7.3,7.3,0,0,1,25.07,23.25Z" transform="translate(-1.49 -3.89)"/><path class="cls-1" d="M40.75,16.45h-5V23H32.62V8.29H35.7V14h5V8.29h3.13V23H40.75Z" transform="translate(-1.49 -3.89)"/><path class="cls-1" d="M60.18,19.33A5.52,5.52,0,0,1,60,20.38a3.06,3.06,0,0,1-.39.79,6,6,0,0,1-.6.66,5.35,5.35,0,0,1-1.76,1,7.54,7.54,0,0,1-2.71.41,7.9,7.9,0,0,1-3.33-.6,4.32,4.32,0,0,1-1.9-1.55,3.82,3.82,0,0,1-.52-1.3A9.66,9.66,0,0,1,48.61,18V8.29h3.13v9.25a11.05,11.05,0,0,0,0,1.25,2.69,2.69,0,0,0,.19.78,2.51,2.51,0,0,0,2.46,1.2A2.52,2.52,0,0,0,56.55,20l.25-.38a1.77,1.77,0,0,0,.17-.46,4.69,4.69,0,0,0,.11-.64,7.89,7.89,0,0,0,0-.91V8.29h3.13v9.6C60.25,18.45,60.22,18.93,60.18,19.33Z" transform="translate(-1.49 -3.89)"/><path class="cls-1" d="M65,23V8.29h3.07V20.5h6L73.46,23Z" transform="translate(-1.49 -3.89)"/><path class="cls-1" d="M87.37,19.33a5.52,5.52,0,0,1-.22,1.05,2.79,2.79,0,0,1-.4.79,4.48,4.48,0,0,1-.6.66,5.3,5.3,0,0,1-1.75,1,7.6,7.6,0,0,1-2.72.41,7.85,7.85,0,0,1-3.32-.6,4.41,4.41,0,0,1-1.91-1.55,4,4,0,0,1-.52-1.3A9.79,9.79,0,0,1,75.8,18V8.29h3.12v9.25A10.75,10.75,0,0,0,79,18.79a2.4,2.4,0,0,0,.19.78,2.5,2.5,0,0,0,2.46,1.2A2.53,2.53,0,0,0,83.74,20a4,4,0,0,0,.24-.38,1.77,1.77,0,0,0,.18-.46c0-.18.08-.4.11-.64s0-.55,0-.91V8.29h3.12v9.6Q87.43,18.73,87.37,19.33Z" transform="translate(-1.49 -3.89)"/><path class="cls-1" d="M96.76,16.2q-.3-.54-.63-1.23c-.21-.47-.42-.9-.61-1.32s-.35-.77-.47-1.06l-.19-.44,0,.49c0,.31,0,.7.06,1.16s0,.94,0,1.44,0,.94,0,1.32L95.13,23h-3V8.29h3.4L99.21,15c.18.35.37.73.57,1.16s.38.83.54,1.21l.57,1.33,0-.44c0-.28,0-.64-.08-1.07s-.07-.87-.1-1.34,0-.89,0-1.25l-.06-6.26h2.91V23h-3.18Z" transform="translate(-1.49 -3.89)"/><path class="cls-1" d="M114.71,23.16a8.36,8.36,0,0,1-3.18-.54A6.53,6.53,0,0,1,109.21,21a6.45,6.45,0,0,1-1.39-2.3,9.14,9.14,0,0,1-.43-3,8.74,8.74,0,0,1,.73-3.75,6.79,6.79,0,0,1,2.2-2.61,7.2,7.2,0,0,1,4.34-1.28,8.34,8.34,0,0,1,5.1,1.64l-1.57,1.87a8.16,8.16,0,0,0-1.63-.84,5.3,5.3,0,0,0-1.84-.3,4,4,0,0,0-2,.46,3.26,3.26,0,0,0-1.19,1.23,4.88,4.88,0,0,0-.56,1.74,14.84,14.84,0,0,0-.13,2,9.83,9.83,0,0,0,.19,2,4.26,4.26,0,0,0,.66,1.6,3.42,3.42,0,0,0,1.25,1.07,4.28,4.28,0,0,0,2,.4,4.47,4.47,0,0,0,1.06-.12,8.46,8.46,0,0,0,.89-.29V17.24h-2.61l-.43-2.45H120v7.09A11,11,0,0,1,114.71,23.16Z" transform="translate(-1.49 -3.89)"/><path class="cls-1" d="M134.63,20.7a4.79,4.79,0,0,1-1.54,1.53,6.81,6.81,0,0,1-2.12.84,10.67,10.67,0,0,1-2.3.26A12,12,0,0,1,123.24,22l1.12-2.34a11.73,11.73,0,0,0,2.2.86,8.79,8.79,0,0,0,2.28.29,9,9,0,0,0,1-.07,3.75,3.75,0,0,0,1-.27,2,2,0,0,0,.75-.58,1.4,1.4,0,0,0,.3-.93,1.47,1.47,0,0,0-.56-1.17,4.73,4.73,0,0,0-1.78-.79l-2-.52a5.82,5.82,0,0,1-2.63-1.41,3.56,3.56,0,0,1-1.06-2.72,4,4,0,0,1,.42-1.81,4.25,4.25,0,0,1,1.18-1.43,5.89,5.89,0,0,1,1.8-.93,7.41,7.41,0,0,1,2.33-.34,11.54,11.54,0,0,1,2.94.39A7.72,7.72,0,0,1,135,9.35l-1.44,2.15a7.86,7.86,0,0,0-3.89-1.14,3.2,3.2,0,0,0-1.79.43,1.39,1.39,0,0,0-.64,1.23,1.31,1.31,0,0,0,.41,1,3.72,3.72,0,0,0,1.56.66l1.94.48a10.48,10.48,0,0,1,1.58.55,4.66,4.66,0,0,1,1.3.83,3.54,3.54,0,0,1,.87,1.21,3.87,3.87,0,0,1,.33,1.66A4.15,4.15,0,0,1,134.63,20.7Z" transform="translate(-1.49 -3.89)"/><path class="cls-1" d="M144,10.74V23h-3.07V10.74h-4.05V8.29h11.63L148,10.74Z" transform="translate(-1.49 -3.89)"/><path class="cls-1" d="M150.56,8.29h9.25l-.44,2.45h-5.76v3.34h4.81v2.45h-4.79v3.89H160V23h-9.46Z" transform="translate(-1.49 -3.89)"/><path class="cls-1" d="M169.93,20.63c-.58-.88-1-1.55-1.32-2a10.54,10.54,0,0,0-.75-1,3.3,3.3,0,0,0-.6-.52,1.55,1.55,0,0,0-.85-.22V23h-3V8.29h5a11.73,11.73,0,0,1,2.49.23,4.1,4.1,0,0,1,1.72.81,4,4,0,0,1,1.53,3.26,3.93,3.93,0,0,1-3.63,4.1,2.4,2.4,0,0,1,.65.71l.89,1.17q.53.7,1,1.47l2,3h-3.68Zm.72-9.09a1.7,1.7,0,0,0-.71-.62,2.78,2.78,0,0,0-1-.26,9.87,9.87,0,0,0-1.07-.06h-1.48v4.11h1.34c.39,0,.77,0,1.15,0a2.94,2.94,0,0,0,1-.25,1.67,1.67,0,0,0,.72-.62,2.11,2.11,0,0,0,.28-1.16A2,2,0,0,0,170.65,11.54Z" transform="translate(-1.49 -3.89)"/><path class="cls-1" d="M190.53,14.49c0-.25,0-.56-.06-.91s0-.69,0-1,0-.61,0-.84v-.36l-.08.36c-.05.22-.12.48-.2.8s-.18.65-.28,1-.18.65-.25.9L186.94,23H184.3l-2.47-8.45c-.07-.24-.16-.54-.25-.92s-.17-.73-.25-1.1-.15-.67-.21-.92L181,11.2l0,.38c0,.24,0,.53,0,.89s0,.72,0,1.1,0,.7-.06,1L180.31,23h-3.05l1.55-14.71h4L185,16.12c.08.26.15.56.23.93s.16.7.22,1l.15.84.08.33.06-.36c.05-.23.11-.52.19-.85s.15-.68.23-1,.16-.66.23-.92l2.25-7.8h4L194.12,23h-3Z" transform="translate(-1.49 -3.89)"/><path class="cls-1" d="M198.36,8.29h3.12V23h-3.12Z" transform="translate(-1.49 -3.89)"/><path class="cls-1" d="M211,16.2q-.3-.54-.63-1.23c-.21-.47-.42-.9-.61-1.32s-.35-.77-.47-1.06l-.19-.44,0,.49c0,.31,0,.7.06,1.16s0,.94,0,1.44,0,.94,0,1.32l.11,6.44h-3V8.29h3.39L213.45,15c.18.35.37.73.57,1.16s.38.83.54,1.21l.57,1.33,0-.44c0-.28-.05-.64-.08-1.07s-.07-.87-.1-1.34,0-.89,0-1.25l-.05-6.26h2.9V23h-3.18Z" transform="translate(-1.49 -3.89)"/><path class="cls-1" d="M222.58,8.29h9.24l-.43,2.45h-5.76v3.34h4.81v2.45h-4.79v3.89H232V23h-9.46Z" transform="translate(-1.49 -3.89)"/></g></g></svg>