<svg xmlns="http://www.w3.org/2000/svg" viewBox="0 0 75.35 27.79"><defs><style>.cls-1{fill:#003671;fill-rule:evenodd;}</style></defs><title>Element 2</title><g id="Ebene_2" data-name="Ebene 2"><g id="Ebene_1-2" data-name="Ebene 1"><path class="cls-1" d="M32.56,16.13a1.31,1.31,0,0,0-.68-1.19,2.37,2.37,0,0,0-1.27-.22H29.28v4.7h.82V17.63H31a1.5,1.5,0,0,0,1.61-1.5Zm-.91,0c0,.56-.29.83-.9.83H30.1V15.35h.65a.91.91,0,0,1,.69.23.8.8,0,0,1,.21.59Z"/><path class="cls-1" d="M36.66,19.42l-1.59-4.71h-1l-1.64,4.71h.86l.4-1.24h1.62l.4,1.24Zm-1.5-1.89H33.94c.11-.31.62-2,.62-2h0c0,.18.54,1.93.59,2Z"/><path class="cls-1" d="M40.83,17.08a2.39,2.39,0,0,0-.54-1.69,2.35,2.35,0,0,0-2-.67h-1v4.7h1.24a2,2,0,0,0,1.78-.66,2.54,2.54,0,0,0,.52-1.68Zm-.92.09c0,1.06-.35,1.61-1.23,1.61h-.55V15.34h.53a1,1,0,0,1,.93.41,2.27,2.27,0,0,1,.32,1.42Z"/><polygon class="cls-1" points="44.75 19.42 44.75 18.75 42.76 18.75 42.76 17.29 44.28 17.29 44.28 16.64 42.74 16.64 42.74 15.36 44.57 15.36 44.68 14.72 41.92 14.72 41.92 19.42 44.75 19.42 44.75 19.42"/><path class="cls-1" d="M49.06,19.42l-.73-1.13a3.75,3.75,0,0,0-.77-.94,1.22,1.22,0,0,0,1.24-1.28c0-.74-.51-1.35-1.62-1.35H45.66v4.7h.81v-2a.46.46,0,0,1,.33.14,5.69,5.69,0,0,1,.85,1.16l.43.73Zm-1.13-3.35a.74.74,0,0,1-.22.57,1.13,1.13,0,0,1-.81.2h-.43V15.35h.45c.74,0,1,.25,1,.72Z"/><path class="cls-1" d="M53.32,18.09a1.18,1.18,0,0,0-1-1.19,1,1,0,0,0,.85-1,1,1,0,0,0-.56-.92,2.28,2.28,0,0,0-1.31-.23H49.93v4.7h1.45c1.26,0,1.94-.4,1.94-1.33ZM52.41,18c0,.42-.27.76-.91.76h-.75V17.29h.73a1.37,1.37,0,0,1,.46,0,.68.68,0,0,1,.47.68Zm-.16-2a.66.66,0,0,1-.2.47c-.15.15-.3.17-.61.17h-.7V15.36h.64a1.65,1.65,0,0,1,.47.05.64.64,0,0,1,.4.59Z"/><path class="cls-1" d="M58.35,17.08c0-1.37-.67-2.43-2.08-2.43-1.24,0-2.08.87-2.08,2.42,0,1.39.7,2.42,2.12,2.42s2-.95,2-2.41Zm-.94,0c0,1.27-.38,1.78-1.12,1.78s-1.18-.67-1.18-1.88.32-1.76,1.16-1.76,1.14.72,1.14,1.86Z"/><path class="cls-1" d="M62.85,19.42l-.74-1.13a3.75,3.75,0,0,0-.77-.94,1.22,1.22,0,0,0,1.24-1.28c0-.74-.51-1.35-1.62-1.35H59.44v4.7h.81v-2a.46.46,0,0,1,.33.14,5.69,5.69,0,0,1,.85,1.16l.43.73Zm-1.14-3.35a.74.74,0,0,1-.22.57,1.13,1.13,0,0,1-.81.2h-.43V15.35h.46c.73,0,1,.25,1,.72Z"/><path class="cls-1" d="M67.09,19.42v-4.7H66.3l0,2.15c0,.42.05,1.1.07,1.33l0,0a9.06,9.06,0,0,0-.51-1.2l-1.21-2.3h-.94v4.7h.81l0-2.28c0-.41,0-.9,0-1.3l0,0a11.73,11.73,0,0,0,.63,1.39l1.12,2.21Z"/><path class="cls-1" d="M32.68,11.3a1.19,1.19,0,0,0-1.06-1.19,1,1,0,0,0,.29-1.95,2.28,2.28,0,0,0-1.31-.23H29.28v4.7h1.45c1.26,0,1.95-.4,1.95-1.33Zm-.92-.08c0,.42-.27.76-.91.76H30.1V10.5h.73a1.37,1.37,0,0,1,.46,0,.67.67,0,0,1,.47.68Zm-.16-2a.68.68,0,0,1-.19.47.77.77,0,0,1-.62.17h-.7V8.57h.64a1.6,1.6,0,0,1,.47,0,.61.61,0,0,1,.4.59Z"/><polygon class="cls-1" points="34.61 12.63 34.61 7.93 33.76 7.93 33.76 12.63 34.61 12.63 34.61 12.63"/><path class="cls-1" d="M39.3,11.3a1.18,1.18,0,0,0-1.06-1.19,1,1,0,0,0,.86-1,1,1,0,0,0-.56-.92,2.3,2.3,0,0,0-1.32-.23H35.91v4.7h1.44c1.26,0,1.95-.4,1.95-1.33Zm-.92-.08c0,.42-.27.76-.9.76h-.75V10.5h.73a1.44,1.44,0,0,1,.46,0,.68.68,0,0,1,.46.68Zm-.15-2a.7.7,0,0,1-.2.47.76.76,0,0,1-.61.17h-.71V8.57h.64a1.6,1.6,0,0,1,.47,0,.62.62,0,0,1,.41.59Z"/><polygon class="cls-1" points="43.07 11.98 41.23 11.98 41.23 7.93 40.38 7.93 40.38 12.63 42.93 12.63 43.07 11.98 43.07 11.98"/><polygon class="cls-1" points="44.64 12.63 44.64 7.93 43.79 7.93 43.79 12.63 44.64 12.63 44.64 12.63"/><path class="cls-1" d="M49.89,10.29c0-1.37-.68-2.43-2.09-2.43-1.24,0-2.08.87-2.08,2.42,0,1.39.7,2.42,2.12,2.42s2-.95,2-2.41Zm-1,0c0,1.27-.38,1.78-1.12,1.78s-1.17-.67-1.17-1.88S47,8.47,47.8,8.47s1.14.72,1.14,1.86Z"/><polygon class="cls-1" points="53.66 7.93 50.21 7.93 50.21 8.58 51.47 8.58 51.47 12.63 52.3 12.63 52.3 8.58 53.55 8.58 53.66 7.93 53.66 7.93"/><polygon class="cls-1" points="57.53 12.63 57.53 7.93 56.69 7.93 56.69 9.82 54.99 9.82 54.99 7.93 54.17 7.93 54.17 12.63 54.99 12.63 54.99 10.46 56.69 10.46 56.69 12.63 57.53 12.63 57.53 12.63"/><polygon class="cls-1" points="61.66 12.63 61.66 11.96 59.67 11.96 59.67 10.5 61.19 10.5 61.19 9.85 59.65 9.85 59.65 8.57 61.48 8.57 61.59 7.93 58.83 7.93 58.83 12.63 61.66 12.63 61.66 12.63"/><path class="cls-1" d="M66.18,12.63l-1.85-2.52,1.73-2.18H65l-1.62,2.19,1.68,2.51Zm-2.77,0V7.93h-.84v4.7Z"/><path class="cls-1" d="M32.7,4.52V1.14h-.83V4.3c0,.62-.3,1-.9,1s-.89-.23-.89-1V1.14h-.83V4.53c0,.75.41,1.39,1.72,1.39,1.09,0,1.73-.54,1.73-1.4Z"/><path class="cls-1" d="M37.34,5.84V1.14h-.79l0,2.15c0,.42,0,1.1.07,1.33l0,0a9.06,9.06,0,0,0-.51-1.2L34.9,1.14H34v4.7h.81l0-2.28c0-.41,0-.91-.05-1.3l0,0a11.73,11.73,0,0,0,.63,1.39l1.12,2.21Z"/><polygon class="cls-1" points="39.49 5.84 39.49 1.14 38.64 1.14 38.64 5.84 39.49 5.84 39.49 5.84"/><path class="cls-1" d="M44.23,1.14h-.87l-.91,2.62a7,7,0,0,0-.3,1h0a7.21,7.21,0,0,0-.26-1L41,1.14h-.91l1.68,4.72h.77l1.72-4.72Z"/><polygon class="cls-1" points="47.65 5.84 47.65 5.17 45.65 5.17 45.65 3.71 47.17 3.71 47.17 3.06 45.63 3.06 45.63 1.78 47.47 1.78 47.57 1.14 44.81 1.14 44.81 5.84 47.65 5.84 47.65 5.84"/><path class="cls-1" d="M52,5.84l-.74-1.13a3.75,3.75,0,0,0-.77-.94,1.23,1.23,0,0,0,1.24-1.29c0-.73-.51-1.34-1.62-1.34H48.55v4.7h.81v-2a.46.46,0,0,1,.33.14,5.42,5.42,0,0,1,.85,1.16l.43.73ZM50.82,2.49a.74.74,0,0,1-.22.57,1.13,1.13,0,0,1-.81.2h-.43V1.77h.46c.73,0,1,.25,1,.72Z"/><path class="cls-1" d="M56.15,4.42c0-.71-.5-1.14-1.22-1.34l-.6-.16c-.49-.14-.66-.29-.66-.58s.33-.64.82-.64a2.31,2.31,0,0,1,1.17.36L56,1.51a2.85,2.85,0,0,0-1.57-.44c-1,0-1.7.56-1.7,1.39a1.17,1.17,0,0,0,.21.68,1.67,1.67,0,0,0,1,.57l.53.14c.51.13.74.35.74.7s-.36.74-1,.74a2.66,2.66,0,0,1-1.34-.38l-.32.59a3.34,3.34,0,0,0,1.63.43c1.28,0,1.95-.73,1.95-1.51Z"/><polygon class="cls-1" points="58.05 5.84 58.05 1.14 57.2 1.14 57.2 5.84 58.05 5.84 58.05 5.84"/><polygon class="cls-1" points="62.26 1.14 58.8 1.14 58.8 1.79 60.06 1.79 60.06 5.84 60.89 5.84 60.89 1.79 62.15 1.79 62.26 1.14 62.26 1.14"/><path class="cls-1" d="M66,5.84,64.4,1.13h-1L61.81,5.84h.86l.4-1.24h1.61l.41,1.24ZM64.5,4H63.27c.12-.31.63-2,.63-2h0c0,.19.54,1.94.59,2ZM65.17.48A.49.49,0,0,0,64.68,0a.48.48,0,0,0-.49.48.49.49,0,0,0,.49.47.49.49,0,0,0,.49-.47Zm-1.52,0A.47.47,0,0,0,63.17,0a.48.48,0,0,0-.48.48.48.48,0,0,0,.48.47.48.48,0,0,0,.48-.47Z"/><polygon class="cls-1" points="69.25 1.14 65.8 1.14 65.8 1.79 67.06 1.79 67.06 5.84 67.89 5.84 67.89 1.79 69.14 1.79 69.25 1.14 69.25 1.14"/><path class="cls-1" d="M73,4.42c0-.71-.51-1.14-1.23-1.34l-.59-.16c-.49-.14-.66-.29-.66-.58s.32-.64.81-.64a2.34,2.34,0,0,1,1.18.36l.37-.55a2.91,2.91,0,0,0-1.58-.44c-1,0-1.69.56-1.69,1.39a1.1,1.1,0,0,0,.21.68,1.67,1.67,0,0,0,1,.57l.54.14c.51.13.74.35.74.7s-.37.74-1,.74a2.73,2.73,0,0,1-1.35-.38l-.31.59a3.31,3.31,0,0,0,1.63.43c1.28,0,2-.73,2-1.51Z"/><polygon class="cls-1" points="75.35 4.34 75.35 3.65 73.77 3.65 73.77 4.34 75.35 4.34 75.35 4.34"/><path class="cls-1" d="M20.91,1.14H24V22a3.68,3.68,0,0,0-3.09,0V1.14Z"/><polygon class="cls-1" points="15.68 1.14 18.78 1.14 18.78 25.52 15.68 25.52 15.68 1.14 15.68 1.14"/><polygon class="cls-1" points="10.45 1.14 13.55 1.14 13.55 25.52 10.45 25.52 10.45 1.14 10.45 1.14"/><polygon class="cls-1" points="5.23 1.14 8.32 1.14 8.32 25.52 5.23 25.52 5.23 1.14 5.23 1.14"/><polygon class="cls-1" points="0 1.14 3.1 1.14 3.1 25.52 0 25.52 0 1.14 0 1.14"/><path class="cls-1" d="M20.28,25.57a2.18,2.18,0,1,1,2.18,2.22,2.19,2.19,0,0,1-2.18-2.22Z"/></g></g></svg>